<svg width="180" height="60" viewBox="0 0 180 60" fill="none" xmlns="http://www.w3.org/2000/svg">
<g clip-path="url(#clip0_6742_3596)">
<path d="M38.2896 1.42992C38.0256 1.09241 37.4898 0 34.7091 0H34.4691C31.6911 0 31.1499 1.09241 30.8887 1.42992C30.6834 1.69272 30.4194 2.33167 30.4248 3.16644C30.4248 3.41378 30.4514 3.67915 30.5074 3.9574C30.798 5.57025 31.7844 10.973 31.8031 11.0838C31.8244 11.2126 31.9497 12.0964 32.403 12.4107C32.6882 12.6091 32.9548 12.6477 33.64 12.6477H35.4502C36.2314 12.6477 36.4767 12.622 36.7806 12.4107C37.2338 12.0964 37.3565 11.2126 37.3804 11.0838C37.4018 10.955 38.6761 3.9574 38.6761 3.9574C38.7321 3.67915 38.7561 3.41378 38.7588 3.16644C38.7588 2.33167 38.5028 1.69272 38.2976 1.42992H38.2896Z" fill="#E96623"></path>
<path d="M1.47965 30.1159C1.1304 30.371 0 30.8889 0 33.5761V33.808C0 36.4926 1.1304 37.0156 1.47965 37.2681C1.75159 37.4665 2.41276 37.7216 3.27656 37.7164C3.5325 37.7164 3.8071 37.6906 4.09503 37.6365C5.76397 37.3557 11.3546 36.4024 11.4693 36.3844C11.6026 36.3638 12.517 36.2427 12.8423 35.8047C13.0476 35.529 13.0876 35.2714 13.0876 34.6092V32.8598C13.0876 32.1049 13.0609 31.8679 12.8423 31.5742C12.517 31.1362 11.6026 31.0177 11.4693 30.9945C11.336 30.9739 4.09503 29.7423 4.09503 29.7423C3.8071 29.6882 3.5325 29.6651 3.27656 29.6625C2.41276 29.6625 1.75159 29.9098 1.47965 30.1082V30.1159Z" fill="#E96623"></path>
<path d="M12.0078 6.77086C11.5732 6.7116 10.3975 6.3071 8.42999 8.20851C8.42999 8.20851 8.382 8.25746 8.34467 8.29095C8.30735 8.32445 8.25936 8.3734 8.25936 8.3734C6.29449 10.2722 6.71306 11.4136 6.77171 11.831C6.8197 12.1582 7.09964 12.7894 7.71549 13.3768C7.89678 13.552 8.11006 13.7221 8.35267 13.8792C9.73901 14.8196 14.3886 17.968 14.4819 18.0325C14.5912 18.1097 15.327 18.6482 15.8762 18.5606C16.2228 18.5065 16.4388 18.3494 16.924 17.8804C16.924 17.8804 17.2652 17.5507 17.5958 17.2312L18.2037 16.6438C18.7555 16.1104 18.9102 15.9224 18.9715 15.5668C19.0621 15.0361 18.5023 14.325 18.425 14.2193C18.345 14.1137 14.1273 8.29611 14.1273 8.29611C13.962 8.06165 13.786 7.85554 13.6048 7.68034C12.9969 7.08776 12.3464 6.81466 12.0078 6.76828V6.77086Z" fill="#E96623"></path>
<path d="M179.744 42.1969C179.557 41.9547 179.261 41.8104 178.95 41.8104H174.521C174.156 41.8104 173.823 42.0088 173.652 42.3283C172.58 44.343 170.469 45.5926 168.147 45.5926H164.841C161.42 45.5926 158.64 42.8951 158.64 39.5818V35.7918C158.64 32.4785 161.423 29.781 164.841 29.781H168.147C170.33 29.781 172.375 30.9172 173.492 32.7491C173.671 33.0402 173.985 33.2154 174.332 33.2154H178.84C179.157 33.2154 179.456 33.066 179.643 32.8161C179.824 32.5687 179.875 32.2518 179.776 31.9658C178.083 27.1324 173.41 23.8861 168.149 23.8861H164.844C158.066 23.8861 152.556 29.2271 152.556 35.7944V39.5844C152.556 46.1517 158.066 51.4926 164.844 51.4926H168.149C173.599 51.4926 178.32 48.0943 179.899 43.0342C179.989 42.7482 179.931 42.4442 179.744 42.202V42.1969Z" fill="#014573"></path>
<path d="M76.8431 33.0763L76.6458 32.4193C76.5845 32.2157 76.5151 32.0174 76.4405 31.8112L76.3152 31.4815C76.2219 31.247 76.1206 31.0151 76.0139 30.7858L75.9499 30.657C73.9238 26.5089 69.5675 23.832 64.8486 23.832H61.5427C56.0667 23.832 51.2065 27.4004 49.7215 32.512L49.5589 33.1639H49.5749C49.3722 34.0296 49.2709 34.9055 49.2709 35.7764V39.5663C49.2709 40.2826 49.3456 41.0168 49.4922 41.7589H49.4629L49.7002 42.64C49.7642 42.8745 49.8281 43.1038 49.9428 43.4258C51.6464 48.2386 56.3146 51.472 61.5587 51.472H64.8646C70.2526 51.472 74.9555 48.1201 76.5711 43.1347C76.6644 42.8487 76.6138 42.5421 76.4272 42.2973C76.2405 42.05 75.9419 41.9031 75.63 41.9031H71.1377C70.7805 41.9031 70.4526 42.0964 70.2793 42.403C69.1889 44.3379 67.1067 45.5411 64.8459 45.5411H61.54C59.1486 45.5411 56.9438 44.1756 55.9254 42.0655C55.6428 41.4677 55.4641 40.8391 55.3948 40.1872L76.1472 40.1795C76.6911 40.1795 77.1337 39.7492 77.1337 39.2236V35.7403C77.1337 34.8592 77.027 33.9677 76.8137 33.0814L76.8351 33.0763H76.8431ZM71.0844 35.0679H55.4108C55.7707 32.0534 58.3754 29.7656 61.564 29.7656H64.8699C67.1467 29.7656 69.2395 30.9765 70.3273 32.9268C70.7085 33.6148 70.9405 34.3671 71.0871 35.0679H71.0844Z" fill="#014573"></path>
<path d="M149.074 33.0814L148.885 32.4296C148.823 32.2235 148.754 32.0251 148.679 31.8164L148.554 31.4866C148.461 31.2522 148.359 31.0203 148.253 30.791L148.189 30.6622C146.163 26.5141 141.806 23.8372 137.087 23.8372H133.779C128.303 23.8372 123.443 27.4056 121.96 32.5172L121.798 33.169H121.814C121.611 34.0347 121.51 34.9107 121.51 35.7815V39.5715C121.51 40.2877 121.584 41.022 121.731 41.764H121.686L121.939 42.6452C122.003 42.8796 122.067 43.1089 122.182 43.431C123.885 48.2438 128.553 51.4772 133.798 51.4772H137.103C142.492 51.4772 147.194 48.1252 148.81 43.1398C148.903 42.8538 148.853 42.5473 148.666 42.3025C148.479 42.0552 148.181 41.9083 147.869 41.9083H143.377C143.019 41.9083 142.691 42.1015 142.518 42.4081C141.428 44.343 139.346 45.5462 137.085 45.5462H133.776C131.385 45.5462 129.183 44.1807 128.164 42.0706C127.882 41.4729 127.703 40.8442 127.634 40.1924L148.386 40.1847C148.93 40.1847 149.373 39.7544 149.373 39.2288V35.7455C149.373 34.8669 149.266 33.9729 149.053 33.084H149.074V33.0814ZM143.323 35.073H127.65C128.01 32.0586 130.614 29.7707 133.803 29.7707H137.109C139.386 29.7707 141.478 30.9816 142.566 32.9294C142.947 33.6251 143.179 34.3748 143.326 35.073H143.323Z" fill="#014573"></path>
<path d="M118.161 21.0521H115.653V17.0792C115.653 16.4995 115.167 16.028 114.57 16.028H110.651C110.054 16.028 109.566 16.4995 109.566 17.0792V42.5679C109.566 43.2841 109.641 44.021 109.787 44.7604H109.761L109.998 45.6493C110.062 45.8786 110.126 46.1079 110.238 46.4299C111.328 49.5062 114.13 51.2917 118.124 51.4566H118.167C118.444 51.4566 118.705 51.3535 118.91 51.1654C119.121 50.967 119.244 50.6888 119.244 50.4028V46.551C119.244 46.0409 118.878 45.6106 118.372 45.523C116.751 45.2499 115.653 43.1914 115.653 42.5704V26.9521H118.161C118.759 26.9521 119.244 26.4806 119.244 25.9009V22.1058C119.244 21.5236 118.759 21.0546 118.161 21.0546V21.0521Z" fill="#014573"></path>
<path d="M106.047 33.0814L105.85 32.4244C105.788 32.2209 105.719 32.0225 105.647 31.8241L105.522 31.4892C105.426 31.2547 105.327 31.0229 105.22 30.7935L105.156 30.6647C103.13 26.5167 98.7712 23.8398 94.055 23.8398H92.4261C89.5254 23.8398 87.142 24.5637 85.1638 26.0478H81.1914C80.6182 26.0478 80.1543 26.4986 80.1543 27.0526V50.5496C80.1543 51.0598 80.5809 51.472 81.1061 51.472H85.2038C85.777 51.472 86.2409 51.0211 86.2409 50.4672V35.7789C86.2409 32.4657 89.0242 29.7707 92.442 29.7707H94.0737C96.3505 29.7707 98.4433 30.9816 99.531 32.932C100.006 33.7951 100.259 34.769 100.259 35.748V50.4389C100.259 50.9928 100.723 51.4437 101.299 51.4437L105.308 51.4385C105.882 51.4385 106.343 50.9876 106.343 50.4337V35.748C106.343 34.8669 106.236 33.9754 106.023 33.0891L106.044 33.084L106.047 33.0814Z" fill="#014573"></path>
<path d="M32.4589 22.7267H36.7459C38.6148 22.7267 40.7263 23.5022 42.262 24.7518C42.7099 25.1202 43.3737 25.0867 43.7709 24.6771L47.1995 21.1448C47.4021 20.9361 47.5114 20.6501 47.4981 20.359C47.4847 20.0704 47.3541 19.8076 47.1328 19.6144C44.2561 17.1616 40.5664 15.8116 36.7459 15.8116H32.4589C23.7597 15.8116 16.684 22.6675 16.684 31.0976V36.0108C16.684 44.4409 23.7597 51.2968 32.4589 51.2968H36.7459C40.553 51.2968 44.2268 49.9571 47.0981 47.5198C47.3194 47.3291 47.4501 47.0637 47.4661 46.7726C47.4794 46.4815 47.3674 46.1929 47.1595 45.9816L43.4217 42.2046C43.0271 41.8027 42.3819 41.7666 41.926 42.1299C40.1505 43.5546 38.4069 44.276 36.7459 44.276H32.4589C27.948 44.276 23.837 40.3367 23.837 36.0083V31.095C23.837 26.7125 27.9454 22.7216 32.4589 22.7216V22.7267Z" fill="#014573"></path>
<path d="M20.7577 59.8635C20.7577 59.9124 20.7177 59.9511 20.6671 59.9511H20.1632C20.1125 59.9511 20.0752 59.915 20.0752 59.8635V56.2745C20.0752 56.2281 20.1125 56.1869 20.1632 56.1869H20.6671C20.7177 56.1869 20.7577 56.2281 20.7577 56.2745V59.8635Z" fill="#014573"></path>
<path d="M22.7439 59.9485C22.6933 59.9485 22.6559 59.9124 22.6559 59.8609V56.2101C22.6559 56.174 22.6879 56.1431 22.7226 56.1431C22.7679 56.1431 22.8132 56.156 22.8452 56.1895L25.146 58.4567V56.2693C25.146 56.223 25.186 56.1817 25.2367 56.1817H25.7405C25.7885 56.1817 25.8285 56.223 25.8285 56.2693V59.9253C25.8285 59.9614 25.7965 59.9923 25.7512 59.9923C25.7059 59.9923 25.6606 59.9794 25.6286 59.9382L23.3384 57.6271V59.8583C23.3384 59.9073 23.2985 59.9459 23.2478 59.9459H22.7439V59.9485Z" fill="#014573"></path>
<path d="M30.3501 58.9385C30.3501 59.5363 29.7583 59.9949 28.9584 59.9949C28.4119 59.9949 28.0173 59.8892 27.5881 59.678C27.5428 59.6548 27.5268 59.6084 27.5508 59.5646L27.7321 59.1833C27.7534 59.1395 27.8041 59.1189 27.8467 59.1395C28.1853 59.2838 28.5399 59.3971 28.9105 59.3971C29.281 59.3971 29.6436 59.2194 29.6436 58.936C29.6436 58.0445 27.5588 58.5315 27.5588 57.1994C27.5588 56.527 28.0733 56.1302 28.7958 56.1302C29.0064 56.1302 29.505 56.1663 30.0835 56.4136C30.1342 56.4342 30.1502 56.4909 30.1342 56.5296L29.9502 56.9238C29.9342 56.9701 29.8809 56.9882 29.8356 56.9701C29.5583 56.8697 29.1371 56.7486 28.9211 56.7486C28.5532 56.7486 28.2653 56.8181 28.2439 57.1582C28.2546 57.9105 30.3501 57.4751 30.3501 58.9334V58.9385Z" fill="#014573"></path>
<path d="M32.7042 56.7769H31.7044C31.6538 56.7769 31.6165 56.7408 31.6165 56.6944V56.2745C31.6165 56.2281 31.6538 56.1869 31.7044 56.1869H34.3945C34.4451 56.1869 34.4851 56.2281 34.4851 56.2745V56.6944C34.4851 56.7408 34.4451 56.7769 34.3945 56.7769H33.3867V59.8635C33.3867 59.9124 33.3467 59.9511 33.2961 59.9511H32.7922C32.7415 59.9511 32.7042 59.915 32.7042 59.8635V56.7769Z" fill="#014573"></path>
<path d="M36.7646 59.8635C36.7646 59.9124 36.7246 59.9511 36.674 59.9511H36.1701C36.1194 59.9511 36.0821 59.915 36.0821 59.8635V56.2745C36.0821 56.2281 36.1194 56.1869 36.1701 56.1869H36.674C36.7246 56.1869 36.7646 56.2281 36.7646 56.2745V59.8635Z" fill="#014573"></path>
<path d="M39.4413 56.7769H38.4415C38.3908 56.7769 38.3535 56.7408 38.3535 56.6944V56.2745C38.3535 56.2281 38.3908 56.1869 38.4415 56.1869H41.1315C41.1822 56.1869 41.2222 56.2281 41.2222 56.2745V56.6944C41.2222 56.7408 41.1822 56.7769 41.1315 56.7769H40.1238V59.8635C40.1238 59.9124 40.0838 59.9511 40.0331 59.9511H39.5292C39.4786 59.9511 39.4413 59.915 39.4413 59.8635V56.7769Z" fill="#014573"></path>
<path d="M45.1332 58.5031V56.2719C45.1332 56.2255 45.1732 56.1843 45.2239 56.1843H45.7331C45.7838 56.1843 45.8211 56.2255 45.8211 56.2719V58.5031C45.8211 59.1318 45.4212 59.9846 44.2908 59.9846C43.1604 59.9846 42.7658 59.1292 42.7658 58.5031V56.2719C42.7658 56.2255 42.8031 56.1843 42.8538 56.1843H43.3523C43.403 56.1843 43.4403 56.2255 43.4403 56.2719V58.5031C43.4403 58.7427 43.6136 59.4023 44.2908 59.4023C44.968 59.4023 45.1332 58.7453 45.1332 58.5031Z" fill="#014573"></path>
<path d="M48.4525 56.7769H47.4527C47.4021 56.7769 47.3647 56.7408 47.3647 56.6944V56.2745C47.3647 56.2281 47.4021 56.1869 47.4527 56.1869H50.1428C50.1934 56.1869 50.2334 56.2281 50.2334 56.2745V56.6944C50.2334 56.7408 50.1934 56.7769 50.1428 56.7769H49.135V59.8635C49.135 59.9124 49.095 59.9511 49.0443 59.9511H48.5405C48.4898 59.9511 48.4525 59.915 48.4525 59.8635V56.7769Z" fill="#014573"></path>
<path d="M55.1762 58.0625C55.1762 58.8715 54.731 59.9949 53.2567 59.9949C51.7823 59.9949 51.3318 58.869 51.3318 58.0625C51.3318 57.2561 51.777 56.1328 53.2567 56.1328C54.7363 56.1328 55.1762 57.2793 55.1762 58.0625ZM54.4804 58.0625C54.4804 57.7276 54.3257 56.7357 53.2567 56.7357C52.1876 56.7357 52.0196 57.7276 52.0196 58.0625C52.0196 58.3975 52.1743 59.4023 53.2567 59.4023C54.3391 59.4023 54.4804 58.3975 54.4804 58.0625Z" fill="#014573"></path>
<path d="M63.1236 57.1505C63.0837 57.1814 63.0277 57.1762 62.9957 57.1427C62.7744 56.9289 62.4011 56.7357 62.0359 56.7357C60.9535 56.7357 60.7989 57.7276 60.7989 58.0625C60.7989 58.3975 60.9535 59.392 62.0359 59.392C62.4145 59.392 62.7851 59.1859 63.041 58.9823C63.0783 58.9514 63.1343 58.9566 63.161 58.9952L63.4462 59.3379C63.4782 59.3739 63.4729 59.428 63.4329 59.4615C63.073 59.7913 62.6278 59.9949 62.0359 59.9949C60.5563 59.9949 60.111 58.869 60.111 58.0625C60.111 57.2561 60.5563 56.1328 62.0359 56.1328C62.6624 56.1328 63.0943 56.3672 63.4516 56.7228C63.4836 56.764 63.4836 56.8155 63.4462 56.8465L63.1236 57.1505Z" fill="#014573"></path>
<path d="M65.875 58.3897V59.3585H67.7039C67.7545 59.3585 67.7919 59.3945 67.7919 59.4461V59.8635C67.7919 59.9124 67.7545 59.9511 67.7039 59.9511H65.2858C65.2351 59.9511 65.1978 59.915 65.1978 59.8635V56.2745C65.1978 56.2281 65.2351 56.1869 65.2858 56.1869H67.7039C67.7545 56.1869 67.7919 56.2281 67.7919 56.2745V56.6944C67.7919 56.7408 67.7545 56.7769 67.7039 56.7769H65.875V57.7997H67.288C67.3386 57.7997 67.3786 57.841 67.3786 57.8873V58.3073C67.3786 58.3537 67.3386 58.3897 67.288 58.3897H65.875Z" fill="#014573"></path>
<path d="M69.5648 59.9485C69.5141 59.9485 69.4768 59.9124 69.4768 59.8609V56.2101C69.4768 56.174 69.5088 56.1431 69.5435 56.1431C69.5861 56.1431 69.6314 56.156 69.6634 56.1895L71.9642 58.4567V56.2693C71.9642 56.223 72.0042 56.1817 72.0549 56.1817H72.5587C72.6094 56.1817 72.6494 56.223 72.6494 56.2693V59.9253C72.6494 59.9614 72.6174 59.9923 72.5721 59.9923C72.5267 59.9923 72.4814 59.9794 72.4494 59.9382L70.1593 57.6271V59.8583C70.1593 59.9073 70.1193 59.9459 70.0687 59.9459H69.5648V59.9485Z" fill="#014573"></path>
<path d="M75.2808 56.7769H74.281C74.2304 56.7769 74.1931 56.7408 74.1931 56.6944V56.2745C74.1931 56.2281 74.2304 56.1869 74.281 56.1869H76.9711C77.0217 56.1869 77.0617 56.2281 77.0617 56.2745V56.6944C77.0617 56.7408 77.0217 56.7769 76.9711 56.7769H75.9633V59.8635C75.9633 59.9124 75.9233 59.9511 75.8727 59.9511H75.3688C75.3181 59.9511 75.2808 59.915 75.2808 59.8635V56.7769Z" fill="#014573"></path>
<path d="M79.3305 59.8635C79.3305 59.9124 79.2932 59.9511 79.2425 59.9511H78.7493C78.6986 59.9511 78.6613 59.915 78.6613 59.8635V56.2745C78.6613 56.2281 78.6986 56.1869 78.7493 56.1869H80.1143C81.1674 56.1869 81.4847 56.898 81.4847 57.3849C81.4847 57.9337 81.1194 58.3356 80.6688 58.5108C80.8741 58.9385 81.1247 59.4461 81.33 59.8738C81.346 59.9073 81.3194 59.9511 81.2794 59.9511H80.7248C80.6688 59.9511 80.6209 59.9176 80.5969 59.8738L79.981 58.601H79.3305V59.8635ZM80.7995 57.3849C80.7995 57.1788 80.6848 56.7743 80.1383 56.7743H79.3278V58.0007H80.1596C80.6822 57.9904 80.7968 57.5807 80.7968 57.3875H80.7995V57.3849Z" fill="#014573"></path>
<path d="M86.7874 58.0625C86.7874 58.8715 86.3421 59.9949 84.8678 59.9949C83.3935 59.9949 82.9429 58.869 82.9429 58.0625C82.9429 57.2561 83.3882 56.1328 84.8678 56.1328C86.3475 56.1328 86.7874 57.2793 86.7874 58.0625ZM86.0915 58.0625C86.0915 57.7276 85.9369 56.7357 84.8678 56.7357C83.7987 56.7357 83.6308 57.7276 83.6308 58.0625C83.6308 58.3975 83.7854 59.4023 84.8678 59.4023C85.9502 59.4023 86.0915 58.3975 86.0915 58.0625Z" fill="#014573"></path>
<path d="M91.013 59.9485C90.9624 59.9485 90.925 59.9124 90.925 59.8609V56.2719C90.925 56.2255 90.9624 56.1843 91.013 56.1843H92.2821C93.7644 56.1843 94.2016 57.2767 94.2016 58.06C94.2016 58.8432 93.7644 59.9459 92.2821 59.9459H91.013V59.9485ZM92.2821 59.3585C93.3591 59.3585 93.5138 58.3975 93.5138 58.0625C93.5138 57.7276 93.3591 56.7743 92.2821 56.7743H91.5942V59.3585H92.2821Z" fill="#014573"></path>
<path d="M96.5077 58.3897V59.3585H98.3366C98.3873 59.3585 98.4246 59.3945 98.4246 59.4461V59.8635C98.4246 59.9124 98.3873 59.9511 98.3366 59.9511H95.9185C95.8679 59.9511 95.8306 59.915 95.8306 59.8635V56.2745C95.8306 56.2281 95.8679 56.1869 95.9185 56.1869H98.3366C98.3873 56.1869 98.4246 56.2281 98.4246 56.2745V56.6944C98.4246 56.7408 98.3873 56.7769 98.3366 56.7769H96.5077V57.7997H97.9207C97.9714 57.7997 98.0114 57.841 98.0114 57.8873V58.3073C98.0114 58.3537 97.9714 58.3897 97.9207 58.3897H96.5077Z" fill="#014573"></path>
<path d="M103.234 58.3897V59.3585H105.063C105.114 59.3585 105.151 59.3945 105.151 59.4461V59.8635C105.151 59.9124 105.114 59.9511 105.063 59.9511H102.645C102.594 59.9511 102.557 59.915 102.557 59.8635V56.2745C102.557 56.2281 102.594 56.1869 102.645 56.1869H105.063C105.114 56.1869 105.151 56.2281 105.151 56.2745V56.6944C105.151 56.7408 105.114 56.7769 105.063 56.7769H103.234V57.7997H104.647C104.698 57.7997 104.738 57.841 104.738 57.8873V58.3073C104.738 58.3537 104.698 58.3897 104.647 58.3897H103.234Z" fill="#014573"></path>
<path d="M106.924 59.9485C106.873 59.9485 106.836 59.9124 106.836 59.8609V56.2101C106.836 56.174 106.868 56.1431 106.903 56.1431C106.948 56.1431 106.993 56.156 107.025 56.1895L109.326 58.4567V56.2693C109.326 56.223 109.366 56.1817 109.417 56.1817H109.921C109.969 56.1817 110.009 56.223 110.009 56.2693V59.9253C110.009 59.9614 109.977 59.9923 109.931 59.9923C109.886 59.9923 109.841 59.9794 109.809 59.9382L107.518 57.6271V59.8583C107.518 59.9073 107.478 59.9459 107.428 59.9459H106.924V59.9485Z" fill="#014573"></path>
<path d="M114.533 58.9385C114.533 59.5363 113.941 59.9949 113.141 59.9949C112.595 59.9949 112.2 59.8892 111.771 59.678C111.725 59.6548 111.709 59.6084 111.733 59.5646L111.915 59.1833C111.936 59.1395 111.987 59.1189 112.029 59.1395C112.368 59.2838 112.723 59.3971 113.093 59.3971C113.464 59.3971 113.826 59.2194 113.826 58.936C113.826 58.0445 111.741 58.5315 111.741 57.1994C111.741 56.527 112.256 56.1302 112.978 56.1302C113.189 56.1302 113.688 56.1663 114.266 56.4136C114.317 56.4342 114.333 56.4909 114.317 56.5296L114.133 56.9238C114.117 56.9701 114.064 56.9882 114.018 56.9701C113.741 56.8697 113.32 56.7486 113.104 56.7486C112.736 56.7486 112.448 56.8181 112.427 57.1582C112.437 57.9105 114.533 57.4751 114.533 58.9334V58.9385Z" fill="#014573"></path>
<path d="M116.898 59.8635C116.898 59.9124 116.858 59.9511 116.807 59.9511H116.303C116.252 59.9511 116.215 59.915 116.215 59.8635V56.2745C116.215 56.2281 116.252 56.1869 116.303 56.1869H116.807C116.858 56.1869 116.898 56.2281 116.898 56.2745V59.8635Z" fill="#014573"></path>
<path d="M118.881 59.9485C118.83 59.9485 118.793 59.9124 118.793 59.8609V56.2101C118.793 56.174 118.825 56.1431 118.86 56.1431C118.902 56.1431 118.948 56.156 118.98 56.1895L121.281 58.4567V56.2693C121.281 56.223 121.32 56.1817 121.371 56.1817H121.875C121.926 56.1817 121.966 56.223 121.966 56.2693V59.9253C121.966 59.9614 121.934 59.9923 121.888 59.9923C121.843 59.9923 121.798 59.9794 121.766 59.9382L119.476 57.6271V59.8583C119.476 59.9073 119.436 59.9459 119.385 59.9459H118.881V59.9485Z" fill="#014573"></path>
<path d="M127.495 58.0625C127.495 58.8715 127.05 59.9949 125.576 59.9949C124.101 59.9949 123.651 58.869 123.651 58.0625C123.651 57.2561 124.096 56.1328 125.576 56.1328C127.055 56.1328 127.495 57.2793 127.495 58.0625ZM126.799 58.0625C126.799 57.7276 126.645 56.7357 125.576 56.7357C124.506 56.7357 124.338 57.7276 124.338 58.0625C124.338 58.3975 124.493 59.4023 125.576 59.4023C126.658 59.4023 126.799 58.3975 126.799 58.0625Z" fill="#014573"></path>
<path d="M132.414 56.7769H131.414C131.364 56.7769 131.326 56.7408 131.326 56.6944V56.2745C131.326 56.2281 131.364 56.1869 131.414 56.1869H134.104C134.155 56.1869 134.195 56.2281 134.195 56.2745V56.6944C134.195 56.7408 134.155 56.7769 134.104 56.7769H133.096V59.8635C133.096 59.9124 133.056 59.9511 133.006 59.9511H132.502C132.451 59.9511 132.414 59.915 132.414 59.8635V56.7769Z" fill="#014573"></path>
<path d="M136.469 58.3897V59.3585H138.298C138.348 59.3585 138.386 59.3945 138.386 59.4461V59.8635C138.386 59.9124 138.348 59.9511 138.298 59.9511H135.88C135.829 59.9511 135.792 59.915 135.792 59.8635V56.2745C135.792 56.2281 135.829 56.1869 135.88 56.1869H138.298C138.348 56.1869 138.386 56.2281 138.386 56.2745V56.6944C138.386 56.7408 138.348 56.7769 138.298 56.7769H136.469V57.7997H137.882C137.933 57.7997 137.973 57.841 137.973 57.8873V58.3073C137.973 58.3537 137.933 58.3897 137.882 58.3897H136.469Z" fill="#014573"></path>
<path d="M142.859 57.1505C142.819 57.1814 142.763 57.1762 142.731 57.1427C142.51 56.9289 142.137 56.7357 141.772 56.7357C140.689 56.7357 140.535 57.7276 140.535 58.0625C140.535 58.3975 140.689 59.392 141.772 59.392C142.15 59.392 142.521 59.1859 142.777 58.9823C142.814 58.9514 142.87 58.9566 142.897 58.9952L143.182 59.3379C143.214 59.3739 143.209 59.428 143.169 59.4615C142.809 59.7913 142.364 59.9949 141.772 59.9949C140.292 59.9949 139.847 58.869 139.847 58.0625C139.847 57.2561 140.292 56.1328 141.772 56.1328C142.398 56.1328 142.83 56.3672 143.187 56.7228C143.219 56.764 143.219 56.8155 143.182 56.8465L142.859 57.1505Z" fill="#014573"></path>
<path d="M145.019 59.9485C144.968 59.9485 144.931 59.9124 144.931 59.8609V56.2101C144.931 56.174 144.963 56.1431 144.998 56.1431C145.043 56.1431 145.088 56.156 145.12 56.1895L147.421 58.4567V56.2693C147.421 56.223 147.461 56.1817 147.512 56.1817H148.016C148.064 56.1817 148.104 56.223 148.104 56.2693V59.9253C148.104 59.9614 148.072 59.9923 148.026 59.9923C147.981 59.9923 147.936 59.9794 147.904 59.9382L145.613 57.6271V59.8583C145.613 59.9073 145.573 59.9459 145.523 59.9459H145.019V59.9485Z" fill="#014573"></path>
<path d="M153.633 58.0625C153.633 58.8715 153.188 59.9949 151.713 59.9949C150.239 59.9949 149.788 58.869 149.788 58.0625C149.788 57.2561 150.234 56.1328 151.713 56.1328C153.193 56.1328 153.633 57.2793 153.633 58.0625ZM152.94 58.0625C152.94 57.7276 152.785 56.7357 151.716 56.7357C150.647 56.7357 150.479 57.7276 150.479 58.0625C150.479 58.3975 150.634 59.4023 151.716 59.4023C152.798 59.4023 152.94 58.3975 152.94 58.0625Z" fill="#014573"></path>
<path d="M156 59.3585H157.341C157.392 59.3585 157.429 59.3945 157.429 59.4461V59.8635C157.429 59.9124 157.392 59.9511 157.341 59.9511H155.406C155.355 59.9511 155.318 59.915 155.318 59.8635V56.2745C155.318 56.2281 155.355 56.1869 155.406 56.1869H155.91C155.96 56.1869 156 56.2281 156 56.2745V59.3611V59.3585Z" fill="#014573"></path>
<path d="M162.511 58.0625C162.511 58.8715 162.066 59.9949 160.591 59.9949C159.117 59.9949 158.666 58.869 158.666 58.0625C158.666 57.2561 159.112 56.1328 160.591 56.1328C162.071 56.1328 162.511 57.2793 162.511 58.0625ZM161.818 58.0625C161.818 57.7276 161.663 56.7357 160.594 56.7357C159.525 56.7357 159.357 57.7276 159.357 58.0625C159.357 58.3975 159.512 59.4023 160.594 59.4023C161.676 59.4023 161.818 58.3975 161.818 58.0625ZM160.775 54.8008C160.81 54.775 160.866 54.7802 160.893 54.8162L161.103 55.1074C161.13 55.1434 161.119 55.1975 161.076 55.2207L160.311 55.6613C160.266 55.6819 160.213 55.6716 160.183 55.6355L160.071 55.4784C160.045 55.4423 160.05 55.3882 160.087 55.3547L160.775 54.8008Z" fill="#014573"></path>
<path d="M165.926 58.6371C165.875 58.6371 165.838 58.601 165.838 58.5546V58.145C165.838 58.0986 165.875 58.0574 165.926 58.0574H167.219C167.27 58.0574 167.31 58.0986 167.31 58.145V59.3611C167.31 59.4152 167.288 59.4667 167.243 59.5053C166.904 59.8119 166.478 60 165.902 60C164.422 60 163.977 58.8741 163.977 58.0677C163.977 57.2613 164.422 56.1379 165.902 56.1379C166.502 56.1379 166.894 56.3286 167.227 56.6558C167.262 56.6919 167.262 56.746 167.227 56.782L166.928 57.0861C166.894 57.1221 166.838 57.1221 166.806 57.0886C166.59 56.9006 166.238 56.7408 165.902 56.7408C164.82 56.7408 164.665 57.7328 164.665 58.0677C164.665 58.4026 164.82 59.3971 165.902 59.3971C166.169 59.3971 166.451 59.3559 166.63 59.1962V58.6422H165.931L165.926 58.6371Z" fill="#014573"></path>
<path d="M169.674 59.8635C169.674 59.9124 169.634 59.9511 169.584 59.9511H169.08C169.029 59.9511 168.992 59.915 168.992 59.8635V56.2745C168.992 56.2281 169.029 56.1869 169.08 56.1869H169.584C169.634 56.1869 169.674 56.2281 169.674 56.2745V59.8635Z" fill="#014573"></path>
<path d="M174.361 57.1505C174.321 57.1814 174.265 57.1762 174.233 57.1427C174.012 56.9289 173.639 56.7357 173.274 56.7357C172.191 56.7357 172.037 57.7276 172.037 58.0625C172.037 58.3975 172.191 59.392 173.274 59.392C173.652 59.392 174.023 59.1859 174.279 58.9823C174.316 58.9514 174.372 58.9566 174.399 58.9952L174.684 59.3379C174.716 59.3739 174.711 59.428 174.671 59.4615C174.311 59.7913 173.865 59.9949 173.274 59.9949C171.794 59.9949 171.349 58.869 171.349 58.0625C171.349 57.2561 171.794 56.1328 173.274 56.1328C173.9 56.1328 174.332 56.3672 174.689 56.7228C174.721 56.764 174.721 56.8155 174.684 56.8465L174.361 57.1505Z" fill="#014573"></path>
<path d="M180 58.0625C180 58.8715 179.555 59.9949 178.08 59.9949C176.606 59.9949 176.156 58.869 176.156 58.0625C176.156 57.2561 176.601 56.1328 178.08 56.1328C179.56 56.1328 180 57.2793 180 58.0625ZM179.307 58.0625C179.307 57.7276 179.152 56.7357 178.083 56.7357C177.014 56.7357 176.846 57.7276 176.846 58.0625C176.846 58.3975 177.001 59.4023 178.083 59.4023C179.165 59.4023 179.307 58.3975 179.307 58.0625Z" fill="#014573"></path>
</g>
<defs>
<clipPath id="clip0_6742_3596">
<rect width="180" height="60" fill="white"></rect>
</clipPath>
</defs>
</svg>
